CD_DA


// Track 1
TRACK AUDIO
NO COPY
NO PRE_EMPHASIS
TWO_CHANNEL_AUDIO
FILE "/Users/M3PUser/Music/arccd/00390/00390.bin" 0 03:33:40


// Track 2
TRACK AUDIO
NO COPY
NO PRE_EMPHASIS
TWO_CHANNEL_AUDIO
FILE "/Users/M3PUser/Music/arccd/00390/00390.bin" 03:33:40 03:10:30


// Track 3
TRACK AUDIO
NO COPY
NO PRE_EMPHASIS
TWO_CHANNEL_AUDIO
FILE "/Users/M3PUser/Music/arccd/00390/00390.bin" 06:43:70 03:38:20


// Track 4
TRACK AUDIO
NO COPY
NO PRE_EMPHASIS
TWO_CHANNEL_AUDIO
FILE "/Users/M3PUser/Music/arccd/00390/00390.bin" 10:22:15 04:38:48


// Track 5
TRACK AUDIO
NO COPY
NO PRE_EMPHASIS
TWO_CHANNEL_AUDIO
FILE "/Users/M3PUser/Music/arccd/00390/00390.bin" 15:00:63 03:14:58


// Track 6
TRACK AUDIO
NO COPY
NO PRE_EMPHASIS
TWO_CHANNEL_AUDIO
FILE "/Users/M3PUser/Music/arccd/00390/00390.bin" 18:15:46 03:09:60


// Track 7
TRACK AUDIO
NO COPY
NO PRE_EMPHASIS
TWO_CHANNEL_AUDIO
FILE "/Users/M3PUser/Music/arccd/00390/00390.bin" 21:25:31 03:25:28


// Track 8
TRACK AUDIO
NO COPY
NO PRE_EMPHASIS
TWO_CHANNEL_AUDIO
FILE "/Users/M3PUser/Music/arccd/00390/00390.bin" 24:50:59 03:13:61


// Track 9
TRACK AUDIO
NO COPY
NO PRE_EMPHASIS
TWO_CHANNEL_AUDIO
FILE "/Users/M3PUser/Music/arccd/00390/00390.bin" 28:04:45 03:53:39


// Track 10
TRACK AUDIO
NO COPY
NO PRE_EMPHASIS
TWO_CHANNEL_AUDIO
FILE "/Users/M3PUser/Music/arccd/00390/00390.bin" 31:58:09 03:59:30


// Track 11
TRACK AUDIO
NO COPY
NO PRE_EMPHASIS
TWO_CHANNEL_AUDIO
FILE "/Users/M3PUser/Music/arccd/00390/00390.bin" 35:57:39 03:15:33


// Track 12
TRACK AUDIO
NO COPY
NO PRE_EMPHASIS
TWO_CHANNEL_AUDIO
FILE "/Users/M3PUser/Music/arccd/00390/00390.bin" 39:12:72 04:25:01

